<?xml version="1.0" standalone="no"?>
<!DOCTYPE svg PUBLIC "-//W3C//DTD SVG 20010904//EN"
 "http://www.w3.org/TR/2001/REC-SVG-20010904/DTD/svg10.dtd">
<svg version="1.0" xmlns="http://www.w3.org/2000/svg"
 width="500.000000pt" height="500.000000pt" viewBox="0 0 500.000000 500.000000"
 preserveAspectRatio="xMidYMid meet">

<g transform="translate(0.000000,500.000000) scale(0.100000,-0.100000)"
fill="#000000" stroke="none">
<path d="M1211 3968 c-7 -79 -15 -153 -18 -165 l-5 -23 569 0 569 0 132 165
132 165 -683 0 -684 0 -12 -142z m190 30 l0 -23 9 23 c11 26 30 29 30 5 1 -17
1 -17 11 -1 13 22 88 22 96 0 5 -12 7 -12 15 2 13 23 28 20 29 -6 l0 -23 9 23
c9 22 25 29 33 15 3 -5 -5 -35 -18 -68 l-22 -60 -44 -2 c-25 -1 -47 3 -51 10
-6 9 -8 9 -8 0 0 -8 -25 -12 -81 -12 -71 0 -79 2 -75 17 3 9 10 37 16 62 15
55 17 60 36 60 8 0 14 -10 15 -22z m344 12 c4 -6 13 -5 24 2 25 15 51 3 52
-24 l2 -23 4 23 c3 13 11 26 19 29 24 9 64 -6 65 -25 0 -13 3 -11 9 6 12 28
40 29 48 0 l5 -22 8 22 c9 23 49 31 49 10 0 -9 3 -9 12 0 23 23 30 12 25 -35
l-6 -48 12 45 c12 42 15 45 47 45 38 0 40 -7 27 -72 -5 -28 -4 -33 12 -33 14
0 24 14 37 50 17 48 36 66 55 54 5 -3 9 -34 9 -69 0 -67 -14 -91 -35 -61 -11
14 -14 15 -25 1 -18 -21 -100 -21 -100 1 0 14 -2 14 -16 -1 -23 -23 -57 -15
-65 15 l-6 25 -4 -25 c-4 -24 -7 -25 -77 -26 -40 0 -76 4 -78 8 -3 5 -12 4
-20 -3 -11 -9 -15 -8 -20 5 -6 16 -8 16 -24 1 -26 -24 -54 -15 -58 18 -4 37
-42 39 -42 2 0 -19 -5 -25 -21 -25 -18 0 -20 4 -15 26 4 15 10 40 13 58 3 17
10 37 16 44 11 14 53 16 62 2z"/>
<path d="M1488 3973 c17 -7 15 -43 -2 -43 -8 0 -18 -4 -21 -10 -4 -6 5 -10 19
-10 23 0 26 4 26 35 0 27 -4 35 -17 34 -11 0 -13 -3 -5 -6z"/>
<path d="M1770 3950 c-6 -23 -9 -44 -7 -46 2 -3 9 14 15 38 6 23 9 44 7 46 -2
2 -9 -15 -15 -38z"/>
<path d="M1710 3976 c0 -2 7 -6 15 -10 8 -3 15 -1 15 4 0 6 -7 10 -15 10 -8 0
-15 -2 -15 -4z"/>
<path d="M1895 3950 c-3 -5 -1 -10 4 -10 6 0 11 5 11 10 0 6 -2 10 -4 10 -3 0
-8 -4 -11 -10z"/>
<path d="M1851 3914 c0 -11 3 -14 6 -6 3 7 2 16 -1 19 -3 4 -6 -2 -5 -13z"/>
<path d="M3618 3963 c6 -2 13 -21 13 -41 2 -34 2 -35 6 -7 3 17 9 36 15 43 8
9 4 12 -18 11 -16 0 -23 -3 -16 -6z"/>
<path d="M3676 3934 c-9 -20 -15 -38 -13 -41 2 -2 12 11 20 29 14 27 17 29 17
11 0 -12 5 -25 11 -29 9 -5 10 1 5 22 -11 45 -21 47 -40 8z"/>
<path d="M3740 3931 c0 -42 17 -55 37 -28 14 17 0 61 -20 65 -14 3 -17 -4 -17
-37z m27 14 c-4 -8 -2 -17 4 -20 11 -7 3 -25 -12 -25 -5 0 -9 14 -9 30 0 17 5
30 11 30 6 0 9 -7 6 -15z"/>
<path d="M3867 3963 c-4 -3 -7 -21 -7 -40 0 -28 3 -33 23 -32 15 1 17 3 5 6
-22 6 -21 60 1 66 14 4 14 5 0 6 -9 0 -19 -2 -22 -6z"/>
<path d="M3929 3961 c9 -6 11 -18 7 -36 -4 -17 -3 -24 4 -20 5 3 10 17 10 30
0 13 6 26 13 28 6 3 -1 6 -18 6 -21 1 -26 -2 -16 -8z"/>
<path d="M3068 3925 c2 -19 6 -35 8 -35 2 0 4 16 4 35 0 19 -4 35 -8 35 -4 0
-6 -16 -4 -35z"/>
<path d="M3136 3951 c-3 -5 1 -14 9 -21 20 -16 19 -28 -2 -33 -14 -4 -12 -5 5
-6 26 -1 32 33 6 43 -8 3 -12 10 -9 16 3 5 4 10 1 10 -3 0 -7 -4 -10 -9z"/>
<path d="M3200 3925 c0 -19 2 -35 4 -35 2 0 6 16 8 35 2 19 0 35 -4 35 -4 0
-8 -16 -8 -35z"/>
<path d="M3252 3925 c0 -22 2 -32 5 -22 6 21 12 22 27 2 9 -12 11 -10 10 15 0
17 -4 33 -8 38 -4 4 -6 1 -4 -7 2 -7 -2 -15 -9 -18 -6 -2 -13 4 -16 14 -3 10
-5 0 -5 -22z"/>
<path d="M3313 3925 c0 -22 2 -30 4 -17 2 12 2 30 0 40 -3 9 -5 -1 -4 -23z"/>
<path d="M3342 3925 c0 -22 2 -33 5 -25 4 8 15 22 26 31 14 11 17 18 8 23 -7
4 -10 2 -9 -5 5 -19 -20 -22 -25 -2 -3 10 -5 0 -5 -22z"/>
<path d="M3545 3940 c-10 -11 -16 -22 -14 -24 10 -10 35 -10 35 -1 0 6 -7 9
-16 7 -11 -2 -10 2 4 13 11 8 17 17 14 20 -2 3 -13 -4 -23 -15z"/>
<path d="M3800 3925 c0 -30 3 -35 23 -34 18 1 19 2 4 6 -15 4 -18 12 -15 34 3
16 1 29 -4 29 -4 0 -8 -16 -8 -35z"/>
<path d="M3425 3939 c-4 -6 -5 -12 -2 -15 2 -3 7 2 10 11 7 17 1 20 -8 4z"/>
<path d="M2660 3786 c0 -25 5 -46 10 -46 6 0 10 6 10 14 0 8 10 16 23 18 16 2
22 10 22 28 0 21 -5 26 -32 28 -33 3 -33 3 -33 -42z m50 14 c0 -5 -7 -10 -15
-10 -8 0 -15 5 -15 10 0 6 7 10 15 10 8 0 15 -4 15 -10z"/>
<path d="M2740 3785 c0 -43 1 -45 30 -45 17 0 30 5 30 10 0 6 -9 10 -20 10
-28 0 -25 20 3 21 21 0 21 1 -3 11 -23 10 -23 11 -5 15 38 9 40 23 2 23 l-37
0 0 -45z"/>
<path d="M2820 3785 c0 -47 14 -61 23 -24 6 23 27 17 27 -7 0 -8 4 -14 9 -14
5 0 9 20 9 45 0 45 0 45 -34 45 -34 0 -34 0 -34 -45z m50 15 c0 -5 -7 -10 -15
-10 -8 0 -15 5 -15 10 0 6 7 10 15 10 8 0 15 -4 15 -10z"/>
<path d="M2910 3785 c0 -43 1 -45 30 -45 17 0 30 5 30 10 0 6 -9 10 -20 10
-27 0 -25 18 3 23 l22 4 -22 2 c-28 1 -31 21 -3 21 11 0 20 5 20 10 0 6 -13
10 -30 10 -29 0 -30 -2 -30 -45z"/>
<path d="M2990 3786 c0 -42 2 -46 24 -46 31 0 48 22 44 57 -2 23 -8 29 -35 31
-33 3 -33 3 -33 -42z m48 2 c-5 -32 -28 -35 -28 -4 0 17 5 26 16 26 10 0 14
-7 12 -22z"/>
<path d="M3087 3785 c-17 -49 -16 -51 13 -32 17 10 22 9 30 -3 15 -25 19 -6 8
38 -14 54 -32 53 -51 -3z m33 0 c0 -8 -4 -15 -10 -15 -5 0 -7 7 -4 15 4 8 8
15 10 15 2 0 4 -7 4 -15z"/>
<path d="M3202 3818 c-16 -16 -16 -55 1 -65 6 -4 22 -8 35 -8 16 -1 22 5 22
22 0 13 -4 23 -10 23 -5 0 -10 -7 -10 -16 0 -24 -25 -11 -28 16 -3 20 -1 22
23 16 20 -5 26 -3 23 6 -6 18 -40 22 -56 6z"/>
<path d="M3280 3785 c0 -43 1 -45 29 -45 17 0 33 5 36 10 4 6 -5 10 -19 10
-32 0 -35 20 -3 21 21 0 21 1 -3 12 l-25 11 28 4 c39 5 33 22 -8 22 -35 0 -35
0 -35 -45z"/>
<path d="M3400 3795 c0 -34 -14 -48 -23 -22 -2 6 -8 9 -13 4 -4 -4 0 -15 9
-24 13 -13 19 -14 31 -3 18 14 22 80 6 80 -5 0 -10 -16 -10 -35z"/>
<path d="M3446 3789 c-17 -41 -14 -67 4 -39 8 13 13 13 31 2 11 -7 22 -12 24
-10 8 8 -20 88 -31 88 -6 0 -19 -19 -28 -41z m30 -16 c-10 -10 -19 5 -10 18 6
11 8 11 12 0 2 -7 1 -15 -2 -18z"/>
<path d="M3520 3785 c0 -43 1 -45 30 -45 17 0 30 5 30 10 0 6 -9 10 -21 10
-18 0 -21 5 -17 35 3 24 0 35 -9 35 -9 0 -13 -15 -13 -45z"/>
<path d="M3607 3785 c-17 -49 -16 -51 13 -32 17 10 22 9 30 -3 16 -26 22 -3 9
39 -7 23 -18 41 -25 41 -7 0 -19 -20 -27 -45z m30 -7 c-3 -8 -6 -5 -6 6 -1 11
2 17 5 13 3 -3 4 -12 1 -19z"/>
<path d="M3724 3796 c-7 -42 5 -70 17 -38 5 12 15 22 24 22 8 0 15 5 15 10 0
6 -7 10 -15 10 -23 0 -18 18 8 23 16 3 13 5 -10 6 -29 1 -33 -2 -39 -33z"/>
<path d="M3800 3785 c0 -41 2 -45 24 -45 14 0 28 5 31 10 3 6 -3 10 -14 10
-17 0 -21 6 -21 35 0 19 -4 35 -10 35 -5 0 -10 -20 -10 -45z"/>
<path d="M3882 3793 c3 -33 7 -38 31 -41 28 -3 30 0 41 51 5 20 2 27 -8 27 -9
0 -16 -12 -18 -32 -2 -18 -7 -33 -13 -33 -5 0 -11 15 -13 33 -2 17 -8 32 -13
32 -6 0 -9 -17 -7 -37z"/>
<path d="M4150 3645 c0 -8 5 -15 10 -15 6 0 10 7 10 15 0 8 -4 15 -10 15 -5 0
-10 -7 -10 -15z"/>
<path d="M4150 3585 c0 -8 5 -15 10 -15 6 0 10 7 10 15 0 8 -4 15 -10 15 -5 0
-10 -7 -10 -15z"/>
<path d="M1874 3553 c-12 -2 -34 -18 -50 -34 -28 -29 -29 -34 -32 -150 -4
-139 4 -161 67 -180 31 -9 47 -9 70 0 57 24 65 44 72 160 3 58 2 120 -3 137
-12 47 -69 77 -124 67z m54 -75 c15 -15 16 -181 2 -209 -13 -23 -52 -25 -70
-4 -18 22 -10 203 10 215 21 13 44 12 58 -2z"/>
<path d="M1366 3448 c-3 -51 -7 -128 -9 -170 l-4 -78 34 0 c33 0 33 0 34 48 0
26 4 65 8 87 l8 40 27 -87 c28 -88 28 -88 62 -88 19 0 36 6 39 13 2 6 5 83 8
170 l4 157 -34 0 -33 0 0 -64 c0 -36 -4 -67 -8 -70 -5 -3 -18 26 -31 65 l-22
69 -39 0 -38 0 -6 -92z"/>
<path d="M1616 3528 c-3 -7 -7 -84 -10 -170 l-6 -158 80 0 80 0 0 30 c0 29 -2
30 -45 30 l-45 0 0 40 0 40 40 0 c38 0 40 2 40 30 0 28 -3 30 -35 30 -34 0
-35 1 -35 40 l0 40 45 0 c43 0 45 1 45 30 l0 30 -75 0 c-52 0 -77 -4 -79 -12z"/>
<path d="M2040 3510 c0 -29 1 -30 50 -30 28 0 50 -2 50 -3 0 -2 -25 -51 -55
-108 -33 -63 -55 -117 -55 -136 l0 -33 90 0 90 0 0 30 c0 29 -1 30 -50 30 -33
0 -50 4 -50 13 0 6 23 54 50 106 31 59 50 106 50 127 l0 34 -85 0 -85 0 0 -30z"/>
<path d="M2250 3431 c0 -59 -3 -136 -6 -170 l-7 -61 87 0 86 0 0 29 c0 28 -2
30 -47 33 -48 3 -48 3 -48 38 0 34 1 35 43 38 39 3 42 5 42 33 0 27 -2 29 -40
29 l-40 0 0 40 0 40 45 0 c43 0 45 1 45 30 l0 30 -80 0 -80 0 0 -109z"/>
<path d="M2446 3509 c-3 -17 -6 -94 -6 -170 l0 -139 35 0 35 0 0 70 0 70 30 0
c85 0 143 65 120 135 -17 50 -47 65 -133 65 l-74 0 -7 -31z m142 -41 c30 -30
1 -68 -52 -68 -24 0 -26 4 -26 40 0 39 1 40 33 40 18 0 38 -5 45 -12z"/>
<path d="M3682 3479 c-60 -30 -92 -80 -92 -145 0 -65 29 -111 90 -142 86 -45
196 -8 239 80 25 52 26 86 7 132 -35 84 -154 121 -244 75z"/>
<path d="M4132 3355 c0 -16 2 -22 5 -12 2 9 2 23 0 30 -3 6 -5 -1 -5 -18z"/>
<path d="M2700 3285 c0 -78 2 -85 20 -85 16 0 20 7 20 30 0 28 3 30 35 30 28
0 35 4 35 20 0 16 -7 20 -35 20 -24 0 -35 5 -35 15 0 10 11 15 35 15 28 0 35
4 35 20 0 18 -7 20 -55 20 l-55 0 0 -85z"/>
<path d="M2857 3352 c-43 -48 -24 -145 31 -157 56 -12 92 26 92 98 0 50 -24
77 -69 77 -24 0 -44 -7 -54 -18z m84 -45 c7 -16 7 -31 0 -50 -9 -23 -16 -28
-39 -25 -23 2 -28 8 -30 36 -5 47 3 62 33 62 17 0 29 -8 36 -23z"/>
<path d="M3010 3285 c0 -69 3 -85 15 -85 10 0 15 10 15 30 0 17 4 30 10 30 5
0 16 -13 25 -30 9 -18 23 -30 35 -30 25 0 25 8 0 40 -24 30 -25 40 -5 40 14 0
35 29 35 49 0 24 -33 41 -81 41 l-49 0 0 -85z m85 30 c0 -14 -8 -21 -27 -23
-22 -3 -28 1 -28 16 0 25 10 33 35 30 12 -2 20 -10 20 -23z"/>
<path d="M3160 3350 c0 -13 7 -20 20 -20 18 0 20 -7 20 -65 0 -58 2 -65 20
-65 18 0 20 7 20 65 0 63 1 65 25 65 18 0 25 5 25 20 0 18 -7 20 -65 20 -58 0
-65 -2 -65 -20z"/>
<path d="M3320 3323 c0 -27 -3 -65 -6 -85 l-7 -38 56 0 c39 0 56 4 61 15 4 12
-3 15 -34 15 -33 0 -40 3 -40 19 0 16 8 20 37 23 53 4 56 28 3 28 -34 0 -41 3
-38 18 2 12 14 18 41 20 24 2 37 8 37 18 0 10 -14 14 -55 14 l-55 0 0 -47z"/>
<path d="M1352 3043 l2 -68 3 62 c3 48 8 63 21 66 12 3 11 5 -5 6 -22 1 -23
-2 -21 -66z"/>
<path d="M2260 3106 c0 -2 7 -7 16 -10 8 -3 12 -2 9 4 -6 10 -25 14 -25 6z"/>
<path d="M2340 3106 c0 -2 7 -7 16 -10 8 -3 12 -2 9 4 -6 10 -25 14 -25 6z"/>
<path d="M1777 3085 c-4 -8 -2 -17 3 -20 6 -4 10 3 10 14 0 25 -6 27 -13 6z"/>
<path d="M1401 3074 c0 -11 3 -14 6 -6 3 7 2 16 -1 19 -3 4 -6 -2 -5 -13z"/>
<path d="M2241 3074 c0 -11 3 -14 6 -6 3 7 2 16 -1 19 -3 4 -6 -2 -5 -13z"/>
<path d="M2321 3074 c0 -11 3 -14 6 -6 3 7 2 16 -1 19 -3 4 -6 -2 -5 -13z"/>
<path d="M1555 3070 c-3 -6 1 -7 9 -4 18 7 21 14 7 14 -6 0 -13 -4 -16 -10z"/>
<path d="M1640 3076 c0 -2 7 -7 16 -10 8 -3 12 -2 9 4 -6 10 -25 14 -25 6z"/>
<path d="M1825 3070 c-3 -6 1 -7 9 -4 18 7 21 14 7 14 -6 0 -13 -4 -16 -10z"/>
<path d="M1930 3027 l5 -52 3 44 c2 24 0 47 -5 52 -4 4 -6 -15 -3 -44z"/>
<path d="M2292 3050 c0 -19 2 -27 5 -17 2 9 2 25 0 35 -3 9 -5 1 -5 -18z"/>
<path d="M2373 3045 c0 -22 2 -30 4 -17 2 12 2 30 0 40 -3 9 -5 -1 -4 -23z"/>
<path d="M2480 3027 l5 -52 3 44 c2 24 0 47 -5 52 -4 4 -6 -15 -3 -44z"/>
<path d="M1503 3030 c0 -25 2 -35 4 -22 2 12 2 32 0 45 -2 12 -4 2 -4 -23z"/>
<path d="M1893 3025 c0 -27 2 -38 4 -22 2 15 2 37 0 50 -2 12 -4 0 -4 -28z"/>
<path d="M2443 3025 c0 -27 2 -38 4 -22 2 15 2 37 0 50 -2 12 -4 0 -4 -28z"/>
<path d="M2606 3030 c2 -57 14 -63 14 -7 0 26 -3 47 -7 47 -5 0 -8 -18 -7 -40z"/>
<path d="M1623 3025 c0 -22 2 -30 4 -17 2 12 2 30 0 40 -3 9 -5 -1 -4 -23z"/>
<path d="M1741 3044 c0 -11 3 -14 6 -6 3 7 2 16 -1 19 -3 4 -6 -2 -5 -13z"/>
<path d="M2562 3030 c0 -14 2 -19 5 -12 2 6 2 18 0 25 -3 6 -5 1 -5 -13z"/>
<path d="M1421 3004 c0 -11 3 -14 6 -6 3 7 2 16 -1 19 -3 4 -6 -2 -5 -13z"/>
<path d="M2047 3001 c-4 -17 -3 -21 5 -13 5 5 8 16 6 23 -3 8 -7 3 -11 -10z"/>
<path d="M1460 3001 c0 -6 4 -13 10 -16 6 -3 7 1 4 9 -7 18 -14 21 -14 7z"/>
<path d="M1810 3001 c0 -6 4 -13 10 -16 6 -3 7 1 4 9 -7 18 -14 21 -14 7z"/>
<path d="M1971 2994 c0 -11 3 -14 6 -6 3 7 2 16 -1 19 -3 4 -6 -2 -5 -13z"/>
<path d="M2320 3001 c0 -6 4 -13 10 -16 6 -3 7 1 4 9 -7 18 -14 21 -14 7z"/>
<path d="M1385 2880 c0 -15 3 -26 8 -23 4 2 7 13 7 23 0 10 -3 21 -7 23 -5 3
-8 -8 -8 -23z"/>
<path d="M1953 2850 c0 -36 2 -50 4 -32 2 17 2 47 0 65 -2 17 -4 3 -4 -33z"/>
<path d="M2473 2850 c0 -36 2 -50 4 -32 3 23 9 32 23 32 14 0 20 -9 23 -32 2
-18 4 -4 4 32 0 36 -2 53 -4 38 -3 -19 -10 -28 -23 -28 -13 0 -20 9 -23 28 -2
15 -4 -2 -4 -38z"/>
<path d="M1563 2835 c0 -27 2 -38 4 -22 2 15 2 37 0 50 -2 12 -4 0 -4 -28z"/>
<path d="M1873 2815 c0 -38 2 -53 4 -32 2 20 2 52 0 70 -2 17 -4 1 -4 -38z"/>
<path d="M2183 2835 c0 -27 2 -38 4 -22 2 15 2 37 0 50 -2 12 -4 0 -4 -28z"/>
<path d="M2273 2835 c0 -27 2 -38 4 -22 2 15 2 37 0 50 -2 12 -4 0 -4 -28z"/>
<path d="M2852 2855 c0 -16 2 -22 5 -12 2 9 2 23 0 30 -3 6 -5 -1 -5 -18z"/>
<path d="M2923 2835 c0 -27 2 -38 4 -22 2 15 2 37 0 50 -2 12 -4 0 -4 -28z"/>
<path d="M2963 2835 c0 -27 2 -38 4 -22 2 15 2 37 0 50 -2 12 -4 0 -4 -28z"/>
<path d="M3093 2830 c0 -30 2 -43 4 -27 2 15 2 39 0 55 -2 15 -4 2 -4 -28z"/>
<path d="M4123 2873 c-7 -3 -13 -20 -13 -39 0 -29 3 -34 24 -34 26 0 40 22 31
50 -6 20 -24 29 -42 23z m30 -26 c3 -8 1 -20 -4 -28 -11 -19 -34 3 -26 25 8
20 23 21 30 3z"/>
<path d="M1641 2854 c0 -11 3 -14 6 -6 3 7 2 16 -1 19 -3 4 -6 -2 -5 -13z"/>
<path d="M1763 2835 c0 -22 2 -30 4 -17 2 12 2 30 0 40 -3 9 -5 -1 -4 -23z"/>
<path d="M2071 2854 c0 -11 3 -14 6 -6 3 7 2 16 -1 19 -3 4 -6 -2 -5 -13z"/>
<path d="M2103 2830 c0 -25 2 -35 4 -22 2 12 2 32 0 45 -2 12 -4 2 -4 -23z"/>
<path d="M4183 2835 c0 -22 2 -30 4 -17 2 12 2 30 0 40 -3 9 -5 -1 -4 -23z"/>
<path d="M1792 2835 c0 -16 2 -22 5 -12 2 9 2 23 0 30 -3 6 -5 -1 -5 -18z"/>
<path d="M3042 2835 c0 -16 2 -22 5 -12 2 9 2 23 0 30 -3 6 -5 -1 -5 -18z"/>
<path d="M1340 2820 c0 -16 2 -30 4 -30 2 0 6 14 8 30 3 17 1 30 -4 30 -4 0
-8 -13 -8 -30z"/>
<path d="M1420 2846 c0 -3 9 -10 20 -16 11 -6 20 -8 20 -6 0 3 -9 10 -20 16
-11 6 -20 8 -20 6z"/>
<path d="M2022 2830 c0 -14 2 -19 5 -12 2 6 2 18 0 25 -3 6 -5 1 -5 -13z"/>
<path d="M2607 2811 c-4 -17 -3 -21 5 -13 5 5 8 16 6 23 -3 8 -7 3 -11 -10z"/>
<path d="M2311 2804 c0 -11 3 -14 6 -6 3 7 2 16 -1 19 -3 4 -6 -2 -5 -13z"/>
<path d="M2560 2811 c0 -6 4 -13 10 -16 6 -3 7 1 4 9 -7 18 -14 21 -14 7z"/>
<path d="M1343 2660 c0 -36 2 -50 4 -32 2 17 2 47 0 65 -2 17 -4 3 -4 -33z"/>
<path d="M1543 2660 c0 -36 2 -50 4 -32 2 17 2 47 0 65 -2 17 -4 3 -4 -33z"/>
<path d="M1773 2660 c0 -36 2 -50 4 -32 2 17 2 47 0 65 -2 17 -4 3 -4 -33z"/>
<path d="M1963 2660 c0 -36 2 -50 4 -32 2 17 2 47 0 65 -2 17 -4 3 -4 -33z"/>
<path d="M2483 2660 c0 -36 2 -50 4 -32 3 23 9 32 23 32 14 0 20 -9 23 -32 2
-18 4 -4 4 32 0 36 -2 53 -4 38 -3 -19 -10 -28 -23 -28 -13 0 -20 9 -23 28 -2
15 -4 -2 -4 -38z"/>
<path d="M2735 2709 c-4 -6 -5 -12 -2 -15 2 -3 7 2 10 11 7 17 1 20 -8 4z"/>
<path d="M2828 2713 c6 -2 18 -2 25 0 6 3 1 5 -13 5 -14 0 -19 -2 -12 -5z"/>
<path d="M1393 2660 c0 -25 2 -35 4 -22 2 12 2 32 0 45 -2 12 -4 2 -4 -23z"/>
<path d="M2572 2660 c-2 -44 10 -70 32 -70 5 0 2 6 -7 13 -9 7 -18 31 -20 57
l-4 45 -1 -45z"/>
<path d="M1463 2625 c0 -38 2 -53 4 -32 2 20 2 52 0 70 -2 17 -4 1 -4 -38z"/>
<path d="M1498 2649 c3 -27 0 -45 -9 -51 -11 -8 -11 -9 1 -5 17 4 27 74 13 88
-5 5 -7 -10 -5 -32z"/>
<path d="M1578 2653 c5 -59 10 -63 11 -10 1 26 -3 47 -7 47 -4 0 -6 -17 -4
-37z"/>
<path d="M1657 2671 c4 -14 -1 -21 -19 -24 -21 -4 -20 -4 5 -6 21 -1 27 4 27
18 0 11 -4 22 -9 25 -5 4 -7 -3 -4 -13z"/>
<path d="M1739 2658 c4 -28 6 -29 9 -9 2 13 0 27 -5 32 -6 6 -7 -3 -4 -23z"/>
<path d="M1805 2680 c3 -5 8 -10 11 -10 2 0 4 5 4 10 0 6 -5 10 -11 10 -5 0
-7 -4 -4 -10z"/>
<path d="M1920 2679 c0 -5 5 -7 10 -4 6 3 10 8 10 11 0 2 -4 4 -10 4 -5 0 -10
-5 -10 -11z"/>
<path d="M2001 2674 c0 -11 3 -14 6 -6 3 7 2 16 -1 19 -3 4 -6 -2 -5 -13z"/>
<path d="M2123 2645 c0 -27 2 -38 4 -22 2 15 2 37 0 50 -2 12 -4 0 -4 -28z"/>
<path d="M2155 2680 c3 -5 11 -10 16 -10 6 0 7 5 4 10 -3 6 -11 10 -16 10 -6
0 -7 -4 -4 -10z"/>
<path d="M2210 2642 l5 -47 3 39 c2 21 0 42 -5 47 -4 4 -6 -13 -3 -39z"/>
<path d="M2283 2645 c0 -27 2 -38 4 -22 2 15 2 37 0 50 -2 12 -4 0 -4 -28z"/>
<path d="M2397 2671 c4 -14 -1 -21 -19 -24 -21 -4 -20 -4 5 -6 21 -1 27 4 27
18 0 11 -4 22 -9 25 -5 4 -7 -3 -4 -13z"/>
<path d="M2933 2645 c0 -27 2 -38 4 -22 2 15 2 37 0 50 -2 12 -4 0 -4 -28z"/>
<path d="M2970 2680 c0 -5 5 -10 11 -10 5 0 7 5 4 10 -3 6 -8 10 -11 10 -2 0
-4 -4 -4 -10z"/>
<path d="M3020 2642 l5 -47 3 39 c2 21 0 42 -5 47 -4 4 -6 -13 -3 -39z"/>
<path d="M3065 2679 c-4 -6 -5 -12 -2 -15 2 -3 7 2 10 11 7 17 1 20 -8 4z"/>
<path d="M3101 2664 c0 -11 3 -14 6 -6 3 7 2 16 -1 19 -3 4 -6 -2 -5 -13z"/>
<path d="M2759 2653 c-13 -16 -12 -17 4 -4 16 13 21 21 13 21 -2 0 -10 -8 -17
-17z"/>
<path d="M1911 2644 c0 -11 3 -14 6 -6 3 7 2 16 -1 19 -3 4 -6 -2 -5 -13z"/>
<path d="M2861 2634 c0 -11 3 -14 6 -6 3 7 2 16 -1 19 -3 4 -6 -2 -5 -13z"/>
<path d="M1812 2620 c0 -14 2 -19 5 -12 2 6 2 18 0 25 -3 6 -5 1 -5 -13z"/>
<path d="M3101 2614 c0 -11 3 -14 6 -6 3 7 2 16 -1 19 -3 4 -6 -2 -5 -13z"/>
<path d="M1860 2611 c0 -5 5 -13 10 -16 6 -3 10 -2 10 4 0 5 -4 13 -10 16 -5
3 -10 2 -10 -4z"/>
<path d="M2396 2603 c-6 -14 -5 -15 5 -6 7 7 10 15 7 18 -3 3 -9 -2 -12 -12z"/>
<path d="M4122 2590 c0 -19 2 -27 5 -17 2 9 2 25 0 35 -3 9 -5 1 -5 -18z"/>
<path d="M2840 2600 c-9 -6 -10 -10 -3 -10 6 0 15 5 18 10 8 12 4 12 -15 0z"/>
<path d="M3745 2380 c-77 -27 -79 -28 -39 -29 23 -1 60 -7 82 -15 40 -14 40
-14 45 12 3 15 9 35 12 45 9 23 -3 21 -100 -13z"/>
<path d="M3440 2279 c-192 -65 -181 -59 -140 -76 19 -8 37 -18 40 -22 3 -4 27
-18 55 -30 l50 -23 -43 -38 c-23 -21 -75 -60 -115 -87 -40 -26 -93 -66 -118
-89 -46 -39 -102 -64 -150 -64 -13 0 -33 -7 -43 -15 -55 -42 -283 -89 -386
-80 l-65 6 72 -35 c91 -43 151 -56 268 -56 219 0 428 73 632 221 45 32 91 59
104 59 18 0 13 8 -33 53 -44 42 -58 62 -66 100 -15 72 1 130 52 183 24 24 40
44 37 43 -3 0 -71 -23 -151 -50z"/>
<path d="M2861 2265 l-11 -45 -109 0 c-59 0 -129 -3 -154 -6 l-46 -7 16 -31
c17 -33 22 -103 11 -147 -7 -25 -7 -25 54 -27 96 -3 96 -4 9 -121 -23 -31 -24
-34 -6 -26 11 4 38 9 60 10 23 2 60 12 83 24 22 11 53 21 67 21 l25 0 -19 38
c-28 55 -34 95 -21 144 16 59 51 102 105 128 25 12 45 23 43 25 -2 1 -24 16
-49 33 l-47 31 -11 -44z"/>
<path d="M3605 2230 c-4 -6 -2 -17 5 -24 8 -11 8 -15 -2 -19 -8 -4 -7 -6 5 -6
9 -1 17 6 17 14 0 8 -5 15 -11 15 -6 0 -9 7 -5 15 6 17 0 20 -9 5z"/>
<path d="M3804 2226 c-3 -8 -4 -23 -2 -33 3 -11 6 -6 9 15 6 34 2 42 -7 18z"/>
<path d="M3653 2213 c-3 -10 -8 -22 -11 -27 -3 -5 0 -6 6 -2 7 4 12 15 13 24
0 12 3 9 10 -7 11 -29 21 -24 12 7 -6 26 -21 29 -30 5z"/>
<path d="M3723 2223 c-19 -7 -16 -16 10 -32 20 -13 21 -13 9 2 -8 9 -11 21 -7
27 7 11 6 11 -12 3z"/>
<path d="M3762 2205 c0 -16 2 -22 5 -12 2 9 2 23 0 30 -3 6 -5 -1 -5 -18z"/>
<path d="M4110 2105 l0 -75 30 0 c35 0 42 25 9 33 -23 6 -17 27 7 27 21 0 17
27 -6 33 -11 3 -20 10 -20 15 0 6 9 14 20 17 30 10 24 25 -10 25 l-30 0 0 -75z"/>
<path d="M2395 2160 c-4 -6 -2 -17 5 -24 8 -11 8 -15 -2 -19 -8 -4 -7 -6 5 -6
9 -1 17 6 17 14 0 8 -5 15 -11 15 -6 0 -9 7 -5 15 6 17 0 20 -9 5z"/>
<path d="M2230 2138 c0 -21 5 -28 20 -28 15 0 20 6 19 28 -2 23 -2 24 -6 5 -2
-13 -9 -23 -14 -23 -6 0 -8 4 -5 8 2 4 1 14 -5 22 -6 11 -9 8 -9 -12z"/>
<path d="M2291 2138 c-1 -21 4 -28 17 -28 11 0 13 3 6 8 -7 4 -14 16 -17 27
-4 15 -5 14 -6 -7z"/>
<path d="M2330 2135 c0 -23 3 -27 10 -15 9 13 11 13 20 0 7 -12 10 -8 10 15 0
23 -3 27 -10 15 -9 -13 -11 -13 -20 0 -7 12 -10 8 -10 -15z"/>
<path d="M2431 2144 c0 -11 3 -14 6 -6 3 7 2 16 -1 19 -3 4 -6 -2 -5 -13z"/>
<path d="M2461 2133 l1 -28 7 25 7 25 8 -22 c10 -32 26 -29 25 5 0 23 -2 24
-8 8 -7 -18 -8 -18 -14 -3 -10 27 -27 20 -26 -10z"/>
<path d="M3561 2120 c0 -19 3 -29 6 -22 4 10 8 10 21 0 13 -11 14 -11 4 7 -28
49 -32 51 -31 15z"/>
<path d="M3610 2120 c0 -25 4 -30 23 -29 17 1 18 2 4 6 -18 5 -20 32 -2 45 6
4 2 8 -7 8 -13 0 -18 -8 -18 -30z"/>
<path d="M3660 2125 c0 -23 2 -25 21 -15 23 13 21 33 -4 38 -12 3 -17 -4 -17
-23z m30 5 c0 -5 -4 -10 -10 -10 -5 0 -10 5 -10 10 0 6 5 10 10 10 6 0 10 -4
10 -10z"/>
<path d="M3715 2129 c-4 -11 -4 -23 -1 -26 3 -4 6 2 6 13 1 16 3 15 15 -6 15
-27 19 -20 9 18 -8 28 -21 28 -29 1z"/>
<path d="M3825 2137 c-3 -9 -7 -24 -10 -33 -3 -8 0 -12 5 -9 6 3 10 16 10 28
1 19 3 18 15 -8 12 -25 14 -26 9 -5 -8 34 -22 47 -29 27z"/>
<path d="M3771 2118 c-1 -21 4 -28 17 -28 11 0 13 3 6 8 -7 4 -14 16 -17 27
-4 15 -5 14 -6 -7z"/>
<path d="M2113 2081 c-29 -16 -76 -46 -104 -67 l-51 -37 47 -24 46 -24 47 22
c26 13 61 23 79 23 37 0 37 0 21 29 -6 12 -16 41 -22 64 l-11 42 -52 -28z"/>
<path d="M2234 2065 c-8 -21 3 -48 19 -43 19 7 22 58 2 58 -8 0 -18 -7 -21
-15z m26 -25 c0 -5 -4 -10 -10 -10 -5 0 -10 5 -10 10 0 6 5 10 10 10 6 0 10
-4 10 -10z"/>
<path d="M2290 2050 c0 -22 5 -30 18 -29 10 0 12 3 5 6 -7 2 -13 13 -13 23 0
10 6 21 13 23 7 3 5 6 -5 6 -13 1 -18 -7 -18 -29z"/>
<path d="M2337 2073 c-11 -11 -8 -45 4 -38 6 4 8 13 5 21 -3 8 -1 14 4 14 5 0
11 -10 13 -22 4 -20 4 -19 6 5 1 26 -16 37 -32 20z"/>
<path d="M2390 2066 c0 -8 6 -17 13 -19 9 -4 8 -8 -3 -16 -9 -7 -10 -11 -3
-11 18 0 26 19 13 34 -8 11 -8 15 2 19 8 4 7 6 -4 6 -10 1 -18 -5 -18 -13z"/>
<path d="M2460 2048 c0 -36 4 -35 14 5 4 16 2 27 -4 27 -5 0 -10 -14 -10 -32z"/>
<path d="M2500 2064 c0 -8 -4 -12 -10 -9 -16 10 -12 -11 5 -25 13 -11 15 -8
15 19 0 17 -2 31 -5 31 -3 0 -5 -7 -5 -16z"/>
<path d="M2432 2050 c0 -14 2 -19 5 -12 2 6 2 18 0 25 -3 6 -5 1 -5 -13z"/>
<path d="M2891 2053 c-1 -12 -9 -24 -18 -26 -17 -4 -17 -5 0 -6 19 -1 32 21
24 41 -3 7 -6 3 -6 -9z"/>
<path d="M2921 2048 c-1 -21 4 -28 17 -28 11 0 13 3 6 8 -7 4 -14 16 -17 27
-4 15 -5 14 -6 -7z"/>
<path d="M2965 2058 c-4 -10 -5 -23 -2 -30 3 -8 6 -5 6 6 1 20 1 20 16 0 8
-10 15 -14 15 -8 0 5 -6 19 -14 30 -13 17 -15 18 -21 2z"/>
<path d="M3000 2060 c0 -5 5 -10 10 -10 6 0 10 5 10 10 0 6 -4 10 -10 10 -5 0
-10 -4 -10 -10z"/>
<path d="M3047 2048 c-8 -31 0 -36 12 -7 7 16 10 19 10 7 1 -9 5 -20 11 -23 6
-4 7 2 1 16 -11 31 -27 34 -34 7z"/>
<path d="M3101 2043 c0 -25 1 -26 9 -8 12 27 12 35 0 35 -5 0 -10 -12 -9 -27z"/>
<path d="M3148 2045 c2 -14 6 -25 8 -25 2 0 4 11 4 25 0 14 -4 25 -9 25 -4 0
-6 -11 -3 -25z"/>
<path d="M3120 2040 c0 -5 5 -10 11 -10 5 0 7 5 4 10 -3 6 -8 10 -11 10 -2 0
-4 -4 -4 -10z"/>
<path d="M3690 1940 c0 -5 10 -10 23 -10 18 0 19 2 7 10 -19 13 -30 13 -30 0z"/>
<path d="M2121 1880 c49 -44 52 -50 37 -62 -15 -11 -16 -20 -7 -57 5 -25 7
-69 3 -98 l-6 -53 81 40 c84 41 105 47 116 30 28 -46 125 64 163 187 13 41 0
46 -90 37 -40 -4 -86 -2 -111 4 -23 6 -86 13 -141 16 l-98 5 53 -49z"/>
<path d="M4122 1905 c0 -16 2 -22 5 -12 2 9 2 23 0 30 -3 6 -5 -1 -5 -18z"/>
<path d="M4128 1815 c-3 -14 -1 -25 3 -25 5 0 9 11 9 25 0 14 -2 25 -4 25 -2
0 -6 -11 -8 -25z"/>
<path d="M1760 1779 c0 -6 -7 -9 -15 -5 -11 4 -15 -1 -15 -17 0 -18 2 -19 10
-7 9 13 11 13 20 0 8 -12 10 -9 10 13 0 15 -2 27 -5 27 -3 0 -5 -5 -5 -11z"/>
<path d="M1792 1765 c0 -16 2 -22 5 -12 2 9 2 23 0 30 -3 6 -5 -1 -5 -18z"/>
<path d="M1812 1765 c0 -16 2 -22 5 -12 2 9 2 23 0 30 -3 6 -5 -1 -5 -18z"/>
<path d="M1846 1776 c4 -11 2 -21 -7 -27 -10 -6 -11 -9 -1 -9 18 0 27 29 13
43 -9 9 -11 8 -5 -7z"/>
<path d="M1870 1771 c0 -11 4 -22 9 -25 4 -3 6 6 3 19 -5 30 -12 33 -12 6z"/>
<path d="M1931 1763 c0 -25 1 -26 9 -8 7 18 8 19 15 3 11 -27 25 -21 24 10 0
24 -1 25 -9 7 -7 -18 -8 -19 -15 -2 -11 26 -25 20 -24 -10z"/>
<path d="M1994 1775 c-3 -8 -3 -19 1 -25 10 -16 45 -12 45 5 0 8 -5 15 -11 15
-5 0 -7 -4 -4 -10 3 -5 -1 -10 -11 -10 -11 0 -15 6 -11 20 6 23 -1 27 -9 5z"/>
<path d="M3704 1716 c-47 -21 -74 -62 -74 -112 0 -24 4 -44 9 -44 5 0 8 11 5
25 -9 51 54 135 91 121 8 -3 17 -1 21 5 3 5 15 7 27 3 29 -8 58 -34 51 -45 -3
-5 2 -6 10 -3 22 8 20 21 -6 38 -35 23 -98 28 -134 12z"/>
<path d="M4130 1709 c0 -5 5 -7 10 -4 6 3 10 8 10 11 0 2 -4 4 -10 4 -5 0 -10
-5 -10 -11z"/>
<path d="M1662 1675 c0 -16 2 -22 5 -12 2 9 2 23 0 30 -3 6 -5 -1 -5 -18z"/>
<path d="M1700 1674 c0 -15 3 -23 8 -18 4 5 10 11 13 14 4 3 1 11 -7 18 -12
11 -14 8 -14 -14z"/>
<path d="M1740 1675 c0 -23 3 -27 10 -15 8 12 11 13 19 1 6 -9 9 -5 9 14 0 19
-3 23 -9 14 -8 -12 -11 -11 -19 1 -7 12 -10 8 -10 -15z"/>
<path d="M1790 1690 c0 -6 7 -13 15 -16 8 -4 12 -11 8 -17 -3 -6 -1 -7 5 -3
15 9 15 9 -8 29 -11 9 -20 12 -20 7z"/>
<path d="M1840 1681 c0 -11 4 -22 9 -25 4 -3 6 6 3 19 -5 30 -12 33 -12 6z"/>
<path d="M1878 1677 c-3 -19 -2 -25 4 -19 6 6 8 18 6 28 -3 14 -5 12 -10 -9z"/>
<path d="M1901 1673 c0 -25 1 -26 9 -8 12 27 12 35 0 35 -5 0 -10 -12 -9 -27z"/>
<path d="M1941 1693 c0 -5 4 -17 9 -28 8 -18 9 -17 9 8 1 15 -3 27 -9 27 -5 0
-10 -3 -9 -7z"/>
<path d="M1970 1678 c0 -16 5 -28 11 -28 5 0 7 5 4 10 -3 6 -2 10 4 10 5 0 12
-6 14 -12 3 -7 6 1 6 17 1 23 -2 27 -9 15 -9 -13 -11 -13 -20 0 -8 12 -10 9
-10 -12z"/>
<path d="M2037 1693 c-15 -14 -6 -39 13 -39 13 0 19 5 15 14 -3 7 -5 18 -5 23
0 11 -14 12 -23 2z"/>
<path d="M2088 1675 c2 -14 6 -25 8 -25 2 0 4 11 4 25 0 14 -4 25 -9 25 -4 0
-6 -11 -3 -25z"/>
<path d="M3725 1680 c-9 -15 -4 -19 28 -22 18 -2 27 -8 27 -20 0 -12 8 -18 23
-18 13 0 28 -5 34 -11 9 -9 12 -7 10 9 -1 15 -10 23 -30 28 -19 4 -27 11 -23
20 4 11 -1 13 -20 8 -16 -4 -29 -2 -34 6 -6 9 -9 9 -15 0z"/>
<path d="M1927 1673 c-4 -3 -7 -11 -7 -17 0 -6 5 -5 12 2 6 6 9 14 7 17 -3 3
-9 2 -12 -2z"/>
<path d="M3707 1638 c3 -13 3 -20 -2 -16 -14 13 -34 -16 -23 -35 5 -9 6 -22 3
-27 -3 -6 -1 -10 4 -10 6 0 11 7 11 15 0 19 76 21 83 3 4 -10 6 -10 6 0 1 17
38 15 45 -3 4 -12 -6 -15 -59 -15 -63 0 -104 -18 -48 -22 107 -6 112 -5 119
24 3 16 10 28 15 28 5 0 9 4 9 8 0 4 -29 7 -65 6 -53 -1 -63 1 -54 12 6 7 7
19 3 26 -6 9 -10 5 -14 -12 -3 -15 -14 -26 -25 -27 -11 -2 -14 0 -7 3 14 7 16
50 3 58 -5 4 -7 -4 -4 -16z"/>
<path d="M3882 1588 c0 -29 -6 -54 -12 -56 -5 -2 -15 -12 -20 -23 -9 -15 -7
-17 5 -13 24 10 45 58 45 104 0 60 -16 49 -18 -12z"/>
<path d="M1550 1609 c-19 -5 -81 -10 -138 -11 -96 -3 -101 -4 -71 -16 18 -8
80 -23 138 -34 58 -11 127 -26 154 -33 52 -15 64 -3 28 29 -11 10 -25 31 -31
47 -13 31 -23 33 -80 18z"/>
<path d="M3980 1521 c0 -6 4 -13 10 -16 6 -3 7 1 4 9 -7 18 -14 21 -14 7z"/>
<path d="M3660 1515 c0 -3 15 -14 33 -25 32 -20 117 -28 117 -12 0 5 -23 9
-52 9 -35 0 -55 6 -63 17 -11 15 -35 22 -35 11z"/>
<path d="M4159 1292 c5 -34 6 -35 9 -8 2 16 0 32 -5 37 -5 5 -7 -7 -4 -29z"/>
<path d="M4183 1295 c0 -22 2 -30 4 -17 2 12 2 30 0 40 -3 9 -5 -1 -4 -23z"/>
<path d="M1146 1250 c0 -3 0 -53 2 -112 l3 -108 222 -1 c122 -1 472 -4 777 -7
892 -8 1343 -7 1697 2 l331 9 5 24 c2 13 1 26 -3 28 -4 2 -10 38 -12 80 -3 41
-7 77 -9 79 -6 6 -3011 12 -3013 6z"/>
</g>
</svg>
