<?xml version="1.0" standalone="no"?>
<!DOCTYPE svg PUBLIC "-//W3C//DTD SVG 20010904//EN"
 "http://www.w3.org/TR/2001/REC-SVG-20010904/DTD/svg10.dtd">
<svg version="1.0" xmlns="http://www.w3.org/2000/svg"
 width="500.000000pt" height="500.000000pt" viewBox="0 0 500.000000 500.000000"
 preserveAspectRatio="xMidYMid meet">

<g transform="translate(0.000000,500.000000) scale(0.100000,-0.100000)"
fill="#000000" stroke="none">
<path d="M1698 3783 c12 -2 32 -2 45 0 12 2 2 4 -23 4 -25 0 -35 -2 -22 -4z"/>
<path d="M1805 3780 c4 -6 11 -8 16 -5 14 9 11 15 -7 15 -8 0 -12 -5 -9 -10z"/>
<path d="M3600 3619 c12 -9 10 -10 -8 -6 -19 5 -22 2 -16 -15 3 -12 1 -24 -6
-28 -9 -5 -9 -9 -1 -14 6 -4 11 -2 11 3 0 6 7 11 15 11 9 0 15 9 15 22 0 17 3
19 12 10 10 -10 10 -17 -1 -35 -13 -20 -13 -21 2 -8 10 7 17 19 17 27 0 16
-27 44 -43 44 -7 0 -6 -5 3 -11z"/>
<path d="M3124 3584 c-68 -33 -87 -133 -35 -185 54 -54 162 -33 196 37 40 84
-3 164 -87 164 -24 0 -57 -7 -74 -16z m96 -24 c10 -6 15 -26 15 -64 0 -63 -22
-96 -66 -96 -35 0 -49 24 -49 82 0 69 52 109 100 78z"/>
<path d="M3350 3585 c0 -8 7 -15 16 -15 14 0 16 -8 10 -52 -3 -29 -6 -65 -6
-79 0 -18 -6 -28 -20 -32 -11 -3 -20 -10 -20 -16 0 -7 37 -11 110 -11 l110 0
2 30 c1 17 2 38 2 48 2 30 -27 18 -36 -15 -8 -30 -12 -33 -48 -33 l-40 0 0 68
c0 71 5 85 33 95 38 14 15 27 -48 27 -51 0 -65 -3 -65 -15z"/>
<path d="M2608 3583 c-31 -5 -37 -18 -13 -27 16 -6 19 -44 9 -84 -6 -21 -11
-16 -47 42 -39 65 -40 66 -83 66 -44 0 -57 -12 -30 -27 22 -13 9 -140 -15
-154 -33 -17 -20 -29 31 -29 51 0 64 11 33 28 -14 8 -15 17 -7 61 l9 52 40
-68 c32 -54 46 -69 67 -71 26 -3 26 -2 33 65 9 101 15 123 32 123 22 0 10 25
-13 26 -10 1 -31 -1 -46 -3z"/>
<path d="M2720 3577 c0 -8 7 -17 15 -20 11 -5 13 -18 9 -59 -8 -81 -13 -98
-29 -98 -8 0 -15 -7 -15 -15 0 -11 12 -15 50 -15 38 0 50 4 50 15 0 8 -7 15
-15 15 -16 0 -19 52 -6 99 5 19 11 9 29 -54 14 -48 27 -75 35 -73 7 3 28 35
47 72 34 65 35 66 38 35 5 -44 -6 -79 -23 -79 -8 0 -15 -7 -15 -15 0 -12 13
-15 60 -15 47 0 60 3 60 15 0 8 -7 15 -15 15 -17 0 -19 35 -9 113 5 33 12 47
25 50 11 3 19 10 19 17 0 7 -18 10 -52 8 l-52 -3 -30 -58 c-16 -31 -32 -55
-35 -51 -3 3 -13 29 -21 57 l-16 52 -52 3 c-40 2 -52 0 -52 -11z"/>
<path d="M1985 3571 c-27 -11 -42 -30 -50 -62 -8 -32 12 -50 69 -64 30 -8 41
-16 41 -30 0 -34 -55 -33 -81 0 -26 33 -44 25 -44 -18 l0 -32 67 -3 c57 -2 69
1 90 19 27 26 30 70 7 90 -9 8 -35 19 -58 24 -49 13 -61 41 -22 51 34 8 57 -1
63 -26 8 -31 30 -23 36 13 2 17 4 33 3 33 -7 8 -106 11 -121 5z"/>
<path d="M2233 3548 c-11 -18 -31 -59 -46 -91 -14 -31 -33 -60 -42 -63 -8 -3
-15 -12 -15 -20 0 -10 13 -14 45 -14 32 0 45 4 45 14 0 8 -5 16 -12 18 -26 9
2 38 36 38 41 0 56 -18 32 -36 -28 -20 -9 -34 44 -34 53 0 73 16 46 35 -9 7
-29 50 -45 96 -33 98 -55 113 -88 57z m36 -75 c1 -7 -8 -13 -19 -13 -23 0 -25
12 -8 43 11 21 11 21 19 2 4 -11 8 -26 8 -32z"/>
<path d="M1616 3464 c-5 -13 -3 -14 7 -6 7 6 46 13 87 15 l75 3 -81 2 c-68 2
-83 -1 -88 -14z"/>
<path d="M3470 3220 c-9 -5 -9 -9 -1 -14 17 -11 14 -121 -4 -136 -21 -18 -9
-30 29 -30 39 0 50 8 35 26 -7 8 -10 41 -7 83 3 65 2 70 -19 74 -12 2 -27 1
-33 -3z"/>
<path d="M1900 3212 c0 -4 5 -13 11 -19 17 -17 2 -123 -17 -123 -8 0 -14 -4
-14 -10 0 -5 24 -10 53 -10 45 1 50 2 35 14 -10 7 -18 23 -18 35 0 17 6 21 33
21 37 0 50 7 65 36 9 16 8 26 -4 42 -13 19 -25 22 -80 22 -35 0 -64 -4 -64 -8z
m110 -43 c0 -14 -7 -19 -25 -19 -18 0 -25 5 -25 18 0 25 7 31 31 25 10 -3 19
-14 19 -24z"/>
<path d="M2810 3210 c0 -5 -9 -18 -21 -29 -14 -12 -17 -21 -9 -26 6 -4 10 -26
9 -49 -2 -23 1 -48 5 -54 11 -19 44 -14 56 7 13 25 13 41 0 41 -5 0 -10 -7
-10 -15 0 -8 -5 -15 -11 -15 -7 0 -9 9 -5 23 3 12 6 30 6 40 0 9 7 17 15 17 8
0 15 5 15 10 0 6 -7 10 -15 10 -9 0 -15 9 -15 25 0 14 -4 25 -10 25 -5 0 -10
-4 -10 -10z"/>
<path d="M2098 3168 c-29 -10 -37 -31 -16 -44 6 -4 16 0 23 9 15 20 25 22 25
4 0 -7 -15 -20 -32 -28 -20 -8 -34 -22 -36 -36 -4 -25 12 -30 78 -29 39 1 45
4 48 25 2 14 0 21 -7 17 -6 -4 -11 10 -13 35 -3 48 -25 62 -70 47z m32 -77 c0
-12 -20 -25 -27 -18 -7 7 6 27 18 27 5 0 9 -4 9 -9z"/>
<path d="M2370 3167 c-27 -14 -33 -38 -12 -45 7 -2 16 5 19 16 3 13 11 18 19
15 24 -9 15 -31 -16 -38 -36 -8 -57 -39 -40 -60 12 -14 95 -16 118 -2 16 11
16 41 -1 34 -9 -3 -12 4 -10 27 2 17 0 36 -4 42 -14 19 -47 24 -73 11z m40
-77 c0 -12 -28 -25 -36 -17 -9 9 6 27 22 27 8 0 14 -5 14 -10z"/>
<path d="M2533 3170 c-12 -5 -26 -18 -32 -29 -38 -70 36 -136 88 -79 27 28 15
45 -13 19 -17 -16 -25 -18 -34 -9 -21 21 -11 78 13 78 7 0 15 -9 18 -21 3 -12
10 -18 16 -14 18 10 13 43 -8 55 -22 11 -19 11 -48 0z"/>
<path d="M2654 3155 c-34 -34 -30 -83 9 -105 24 -13 30 -13 54 0 31 18 42 40
19 40 -9 0 -16 -5 -16 -11 0 -14 -42 -7 -48 9 -2 8 7 12 26 12 61 0 71 19 34
63 -21 24 -49 21 -78 -8z m56 -15 c0 -5 -9 -10 -21 -10 -11 0 -17 5 -14 10 3
6 13 10 21 10 8 0 14 -4 14 -10z"/>
<path d="M2905 3166 c-12 -8 -16 -19 -12 -30 8 -19 32 -17 32 2 0 17 19 16 23
0 1 -8 -13 -19 -33 -27 -27 -9 -35 -18 -35 -36 0 -27 15 -33 75 -30 63 3 65 4
65 26 0 14 -5 19 -14 16 -11 -5 -13 1 -9 27 9 55 -45 86 -92 52z m45 -81 c0
-8 -7 -15 -15 -15 -16 0 -20 12 -8 23 11 12 23 8 23 -8z"/>
<path d="M3063 3172 c-22 -3 -33 -22 -13 -22 16 0 12 -53 -6 -78 -13 -19 -13
-23 0 -28 8 -3 25 -4 38 -2 21 3 23 8 23 53 0 39 4 50 18 53 20 4 24 -36 6
-70 -13 -24 3 -40 36 -36 17 3 20 11 20 53 0 40 3 50 19 53 19 4 19 6 4 -83
-2 -15 3 -21 20 -23 35 -5 58 6 44 20 -7 7 -12 31 -12 54 0 53 -18 70 -59 56
-16 -6 -32 -7 -36 -4 -7 7 -64 9 -102 4z"/>
<path d="M3333 3168 c-47 -23 -49 -108 -3 -123 25 -8 75 2 88 18 5 7 12 24 16
40 5 21 1 33 -18 52 -27 27 -48 30 -83 13z m57 -52 c0 -35 -21 -63 -40 -51
-11 7 -14 68 -3 78 3 4 15 7 25 7 14 0 18 -8 18 -34z"/>
<path d="M2215 3159 c-4 -5 -1 -9 4 -9 6 0 11 -18 11 -40 0 -22 -4 -40 -10
-40 -24 0 -7 -18 20 -22 33 -5 59 5 41 16 -13 9 -15 76 -2 76 5 0 11 -5 13
-12 6 -17 28 0 28 22 0 15 -8 18 -50 18 -27 1 -52 -3 -55 -9z"/>
<path d="M1572 3130 c-7 -11 -8 -20 -3 -20 6 0 13 5 17 11 4 7 22 9 49 4 26
-3 46 -2 50 5 4 7 12 7 26 0 15 -8 23 -7 35 5 14 13 7 15 -73 15 -77 0 -90 -2
-101 -20z"/>
<path d="M1700 3110 c0 -5 5 -10 11 -10 5 0 7 5 4 10 -3 6 -8 10 -11 10 -2 0
-4 -4 -4 -10z"/>
<path d="M1627 3049 c7 -9 10 -19 6 -22 -3 -4 -11 1 -18 10 -10 13 -13 14 -20
2 -5 -8 -5 -11 0 -7 4 4 13 1 19 -8 10 -13 15 -12 35 10 14 15 19 26 13 26 -7
0 -12 -5 -12 -11 0 -8 -6 -7 -17 2 -16 12 -17 12 -6 -2z"/>
<path d="M1490 3023 c0 -6 8 -17 18 -24 16 -13 16 -13 2 6 -8 11 -16 22 -17
24 -2 2 -3 0 -3 -6z"/>
<path d="M1455 2999 c-11 -17 1 -21 15 -4 8 9 8 15 2 15 -6 0 -14 -5 -17 -11z"/>
<path d="M1544 2995 c-16 -12 -17 -14 -3 -15 9 0 19 7 23 15 7 19 5 19 -20 0z"/>
<path d="M1575 2990 c-3 -5 1 -10 9 -10 9 0 16 5 16 10 0 6 -4 10 -9 10 -6 0
-13 -4 -16 -10z"/>
<path d="M1310 2895 c0 -8 5 -15 10 -15 6 0 10 7 10 15 0 8 -4 15 -10 15 -5 0
-10 -7 -10 -15z"/>
<path d="M1908 2862 c-2 -22 1 -39 7 -39 6 0 9 17 7 39 -2 21 -5 38 -7 38 -2
0 -5 -17 -7 -38z"/>
<path d="M3627 2893 c-4 -3 -7 -12 -7 -20 0 -9 16 -13 55 -13 48 0 55 2 55 20
0 17 -7 20 -48 20 -27 0 -52 -3 -55 -7z"/>
<path d="M2387 2883 c-9 -9 -9 -51 1 -56 4 -3 8 10 9 29 3 35 1 39 -10 27z"/>
<path d="M2060 2847 c0 -18 5 -27 16 -27 14 0 15 2 3 17 -8 9 -12 18 -11 20 2
3 1 7 -2 11 -3 3 -6 -7 -6 -21z"/>
<path d="M1544 2790 c-5 -10 -38 -49 -73 -85 l-63 -65 81 0 82 0 60 57 c32 32
59 62 59 68 0 5 -14 -5 -31 -22 -29 -32 -64 -48 -40 -19 6 7 9 20 5 29 -3 8
-1 18 5 22 6 3 11 -1 11 -9 0 -9 5 -16 10 -16 6 0 10 7 10 16 0 11 6 15 20 11
12 -3 30 3 43 14 22 18 21 18 -74 19 -86 0 -97 -2 -105 -20z m58 -19 c-12 -10
-22 -23 -22 -28 0 -6 -9 -18 -20 -28 -11 -10 -20 -13 -20 -7 0 7 -7 12 -16 12
-8 0 -12 -4 -9 -10 3 -5 1 -10 -4 -10 -15 0 -14 13 3 36 14 18 15 18 21 2 10
-25 28 -23 20 2 -4 14 -2 20 8 20 8 0 20 7 27 15 7 8 17 15 23 15 5 0 0 -8
-11 -19z m-112 -71 c0 -5 -5 -10 -11 -10 -5 0 -7 5 -4 10 3 6 8 10 11 10 2 0
4 -4 4 -10z"/>
<path d="M1855 2686 c-7 -55 -1 -81 16 -71 5 4 9 17 9 29 0 16 7 26 21 29 16
4 20 12 17 34 -2 22 -9 29 -30 31 -25 3 -27 0 -33 -52z m40 25 c3 -5 1 -12 -5
-16 -5 -3 -10 1 -10 9 0 18 6 21 15 7z"/>
<path d="M1936 2724 c-3 -9 -6 -38 -6 -65 0 -42 3 -49 20 -49 22 0 27 24 8 36
-7 5 -5 12 8 22 13 10 15 16 7 19 -15 6 -17 33 -3 33 6 0 10 5 10 10 0 16 -37
11 -44 -6z"/>
<path d="M1996 2703 c-10 -61 -7 -95 6 -91 7 3 15 15 18 29 l6 24 7 -28 c4
-16 13 -27 20 -24 15 5 23 127 7 127 -5 0 -10 -9 -10 -20 0 -11 -4 -20 -10
-20 -5 0 -10 9 -10 20 0 36 -27 22 -34 -17z"/>
<path d="M2086 2695 c-9 -60 -1 -85 29 -85 31 0 35 9 42 77 5 45 3 55 -8 51
-9 -3 -15 -22 -17 -51 -4 -63 -22 -60 -22 3 0 62 -15 65 -24 5z"/>
<path d="M2176 2709 c-9 -48 -7 -99 4 -99 6 0 10 7 10 15 0 8 5 15 10 15 6 0
10 -7 10 -15 0 -8 6 -15 14 -15 11 0 12 7 7 27 -4 16 -3 41 3 56 9 22 8 30 -4
37 -29 18 -47 11 -54 -21z m39 2 c3 -5 1 -12 -5 -16 -5 -3 -10 1 -10 9 0 18 6
21 15 7z"/>
<path d="M2260 2676 l0 -66 29 0 c34 0 41 14 41 81 0 66 -17 62 -25 -6 -9 -65
-28 -63 -24 3 2 29 -1 47 -9 50 -9 3 -12 -15 -12 -62z"/>
<path d="M2350 2706 c0 -18 -3 -48 -6 -65 -5 -24 -3 -31 10 -31 11 0 16 9 17
28 l1 27 11 -27 c18 -46 37 -35 39 22 0 28 1 55 2 62 1 6 -5 13 -11 16 -9 2
-13 -8 -14 -30 l-1 -33 -14 33 c-18 42 -34 41 -34 -2z"/>
<path d="M2484 2725 c-11 -26 -9 -110 1 -115 6 -3 11 7 13 23 2 15 9 27 17 27
8 0 19 9 25 19 13 25 13 27 -6 45 -20 20 -43 20 -50 1z m36 -31 c0 -8 -5 -12
-10 -9 -6 4 -8 11 -5 16 9 14 15 11 15 -7z"/>
<path d="M2558 2670 c-11 -42 -13 -62 -5 -67 6 -4 13 -1 15 5 5 16 29 15 35 0
11 -32 18 7 11 59 -13 81 -34 83 -56 3z"/>
<path d="M2640 2665 c0 -37 4 -65 10 -65 6 0 10 9 10 19 0 30 17 34 24 6 13
-53 36 -8 36 71 0 39 -30 50 -31 12 l0 -23 -11 23 c-22 44 -38 26 -38 -43z"/>
<path d="M2746 2681 c-18 -57 -20 -81 -6 -81 6 0 10 5 10 10 0 6 7 10 15 10 8
0 15 -4 15 -10 0 -5 7 -10 16 -10 12 0 14 7 10 28 -3 15 -8 44 -12 65 -9 51
-29 46 -48 -12z m29 -21 c3 -5 1 -10 -4 -10 -6 0 -11 5 -11 10 0 6 2 10 4 10
3 0 8 -4 11 -10z"/>
<path d="M2829 2709 c-9 -18 -7 -27 10 -50 l22 -29 -23 -9 c-20 -8 -21 -10 -5
-16 42 -17 64 29 31 66 -16 18 -11 44 7 34 5 -4 9 1 9 9 0 24 -37 19 -51 -5z"/>
<path d="M3115 2700 c-8 -12 -12 -57 -20 -222 l-6 -127 43 -5 c24 -4 103 -5
177 -4 119 3 134 5 137 21 3 21 -28 39 -53 31 -15 -5 -15 -4 -3 5 8 6 22 8 30
6 16 -5 17 -2 22 59 3 26 -2 30 -50 49 -29 11 -50 22 -48 24 3 3 27 5 54 5 45
-1 50 1 55 24 5 30 -12 44 -20 15 -7 -27 -19 -27 -27 1 -5 22 -6 22 -20 3 -14
-19 -15 -19 -16 -2 0 27 -34 17 -38 -11 -4 -27 -19 -35 -58 -30 -26 3 -24 5
35 48 l62 45 -43 6 c-24 4 -61 15 -83 25 l-40 18 55 4 c30 2 84 0 120 -3 61
-7 63 -8 40 -21 l-25 -13 33 -1 c28 0 32 3 32 25 0 14 -1 25 -2 26 -2 0 -63 3
-135 6 -91 3 -133 1 -133 -6 0 -6 -16 -11 -36 -11 -21 0 -33 4 -29 10 3 6 4
10 1 10 -3 0 -8 -5 -11 -10z"/>
<path d="M3610 2655 c0 -13 10 -15 50 -13 67 4 69 22 3 26 -43 2 -53 0 -53
-13z"/>
<path d="M2885 2591 c-3 -5 -1 -12 5 -16 5 -3 10 1 10 9 0 18 -6 21 -15 7z"/>
<path d="M1846 2534 c-12 -31 -7 -116 7 -112 6 3 14 13 16 24 2 10 12 27 22
37 22 21 24 38 7 55 -17 17 -45 15 -52 -4z"/>
<path d="M1927 2543 c-4 -3 -7 -33 -7 -65 0 -55 1 -58 25 -58 28 0 33 15 9 28
-14 8 -14 10 0 22 13 10 14 15 4 28 -10 12 -10 16 0 19 19 7 14 33 -6 33 -10
0 -22 -3 -25 -7z"/>
<path d="M1987 2543 c-4 -3 -7 -33 -7 -65 0 -43 4 -58 14 -58 8 0 17 6 19 13
4 10 6 10 6 0 1 -7 7 -13 14 -13 14 0 17 97 4 118 -9 13 -39 16 -50 5z"/>
<path d="M2069 2523 c0 -16 -1 -46 -2 -68 -2 -34 1 -40 21 -43 24 -4 32 23 10
31 -10 3 -10 7 1 20 10 13 11 20 2 31 -10 11 -9 16 5 24 21 11 10 32 -17 32
-14 0 -19 -7 -20 -27z"/>
<path d="M2130 2475 c0 -70 7 -78 48 -49 16 11 22 25 22 53 0 43 -14 61 -47
61 -22 0 -23 -4 -23 -65z m50 12 c0 -12 -4 -28 -9 -35 -12 -19 -21 6 -14 41 6
31 23 26 23 -6z"/>
<path d="M2226 2486 c-19 -63 -20 -76 -6 -76 6 0 10 5 10 10 0 6 7 10 15 10 8
0 15 -4 15 -10 0 -5 7 -10 16 -10 12 0 15 6 11 23 -4 12 -9 41 -13 65 -9 58
-29 53 -48 -12z m29 -16 c3 -5 1 -10 -4 -10 -6 0 -11 5 -11 10 0 6 2 10 4 10
3 0 8 -4 11 -10z"/>
<path d="M2340 2475 c0 -65 19 -95 21 -32 l1 32 14 -32 c8 -18 18 -33 23 -33
10 0 24 107 16 121 -12 18 -25 9 -26 -18 l-1 -28 -11 28 c-20 50 -37 33 -37
-38z"/>
<path d="M2435 2523 c4 -10 10 -39 12 -65 7 -60 33 -68 33 -10 0 21 7 47 15
58 18 24 19 34 1 34 -8 0 -17 -8 -21 -17 -6 -17 -7 -17 -16 0 -6 9 -15 17 -21
17 -6 0 -7 -7 -3 -17z"/>
<path d="M2520 2470 c0 -63 2 -70 20 -70 22 0 28 26 8 33 -10 3 -10 7 1 20 10
13 11 20 2 31 -10 11 -9 16 5 24 21 11 10 32 -17 32 -17 0 -19 -7 -19 -70z"/>
<path d="M2586 2518 c-17 -64 1 -153 21 -102 5 15 7 15 15 0 16 -29 23 -17 25
44 1 49 -2 62 -17 70 -28 15 -37 12 -44 -12z m44 -17 c0 -6 -4 -13 -10 -16 -5
-3 -10 1 -10 9 0 9 5 16 10 16 6 0 10 -4 10 -9z"/>
<path d="M2676 2514 c-3 -9 -6 -38 -6 -66 0 -75 24 -58 28 20 3 58 -8 82 -22
46z"/>
<path d="M1495 2417 c-26 -29 -60 -66 -76 -83 -16 -16 -29 -32 -29 -35 0 -2
36 -5 79 -7 73 -3 81 -1 101 20 12 13 49 51 83 85 l62 63 -60 1 c-33 1 -72 3
-87 4 -21 3 -36 -7 -73 -48z m65 9 c0 -3 -4 -8 -10 -11 -5 -3 -10 -1 -10 4 0
6 5 11 10 11 6 0 10 -2 10 -4z m100 1 c0 -2 -10 -12 -21 -23 -22 -19 -22 -19
-8 4 12 19 29 30 29 19z m-53 -49 c-3 -8 -6 -5 -6 6 -1 11 2 17 5 13 3 -3 4
-12 1 -19z m-40 -40 c-3 -8 -6 -5 -6 6 -1 11 2 17 5 13 3 -3 4 -12 1 -19z"/>
<path d="M3084 2186 c-51 -23 -100 -73 -124 -128 -32 -76 -26 -177 15 -244 57
-91 180 -137 280 -104 48 16 110 72 138 124 30 58 30 174 0 231 -27 52 -78
100 -125 119 -45 19 -142 20 -184 2z"/>
<path d="M1476 2070 c-21 -27 -52 -62 -67 -77 -16 -16 -29 -31 -29 -35 0 -5
37 -8 83 -8 l82 0 75 80 c51 54 71 81 62 85 -7 3 -48 5 -90 5 l-77 -1 -39 -49z
m155 -3 c-10 -9 -11 -8 -5 6 3 10 9 15 12 12 3 -3 0 -11 -7 -18z"/>
<path d="M1497 1747 c-8 -12 -35 -47 -61 -77 l-47 -55 48 -7 c116 -16 115 -16
187 71 74 91 74 91 -45 91 -58 0 -69 -3 -82 -23z"/>
<path d="M1844 1563 c7 -59 11 -71 22 -60 10 10 -6 117 -18 117 -7 0 -9 -19
-4 -57z"/>
<path d="M1948 1558 c5 -64 22 -90 22 -32 0 44 -9 84 -19 84 -3 0 -4 -24 -3
-52z"/>
<path d="M2071 1569 c-14 -41 -14 -59 0 -59 7 0 18 -8 25 -17 19 -27 25 -11
18 51 -8 63 -26 74 -43 25z m16 -31 c-3 -8 -6 -5 -6 6 -1 11 2 17 5 13 3 -3 4
-12 1 -19z"/>
<path d="M2290 1548 c0 -64 10 -81 41 -76 21 3 24 8 24 43 0 32 -5 42 -22 50
-13 5 -23 15 -23 22 0 7 -4 13 -10 13 -5 0 -10 -24 -10 -52z m50 -28 c0 -11
-4 -20 -10 -20 -5 0 -10 9 -10 20 0 11 5 20 10 20 6 0 10 -9 10 -20z"/>
<path d="M1887 1583 c-14 -14 -6 -40 16 -52 l22 -11 -22 6 c-13 3 -23 1 -23
-4 0 -17 29 -34 46 -28 13 5 15 14 9 44 -8 43 -30 64 -48 45z"/>
<path d="M2166 1575 c-3 -8 -4 -21 -2 -27 3 -7 7 -25 10 -40 4 -16 13 -28 20
-28 11 0 13 7 6 29 -4 16 -6 32 -3 34 7 8 -7 47 -17 47 -4 0 -10 -7 -14 -15z"/>
<path d="M2370 1561 c0 -43 11 -91 21 -91 10 0 12 64 3 98 -9 31 -24 27 -24
-7z"/>
<path d="M1990 1566 c0 -9 5 -16 10 -16 6 0 10 4 10 9 0 6 -4 13 -10 16 -5 3
-10 -1 -10 -9z"/>
<path d="M2487 1568 c-7 -21 7 -101 19 -105 9 -3 11 48 5 110 -2 12 -18 8 -24
-5z"/>
<path d="M2219 1563 c0 -5 -2 -22 -4 -39 -5 -37 12 -56 43 -47 39 10 22 93
-18 93 -11 0 -20 -3 -21 -7z"/>
<path d="M2417 1553 c-10 -9 -8 -55 2 -71 4 -8 19 -12 31 -10 44 6 35 88 -10
88 -9 0 -20 -3 -23 -7z m40 -59 c-3 -3 -12 -4 -19 -1 -8 3 -5 6 6 6 11 1 17
-2 13 -5z"/>
<path d="M2891 1548 c-33 -12 -24 -49 17 -67 33 -15 43 -31 18 -31 -7 0 -19 7
-26 15 -17 21 -30 19 -30 -4 0 -26 66 -39 88 -17 21 21 8 44 -34 62 -24 10
-33 19 -27 25 11 11 43 2 43 -12 0 -5 5 -9 10 -9 6 0 10 8 10 19 0 22 -35 32
-69 19z"/>
<path d="M3005 1498 c-9 -24 -19 -49 -22 -55 -3 -9 4 -13 22 -13 23 0 26 2 15
15 -11 13 -8 15 13 15 18 0 25 -4 21 -14 -4 -9 5 -15 26 -18 17 -3 29 -2 28 1
-33 68 -61 111 -72 111 -8 0 -22 -19 -31 -42z"/>
<path d="M3125 1480 c0 -56 2 -60 23 -60 25 0 25 0 12 34 -13 35 1 33 28 -4
32 -43 52 -39 52 9 0 22 3 46 6 55 5 12 0 16 -20 16 -23 0 -25 -2 -16 -19 26
-50 4 -54 -28 -6 -12 19 -30 35 -40 35 -14 0 -17 -10 -17 -60z"/>
<path d="M3260 1520 c0 -5 5 -10 11 -10 8 0 10 -17 7 -50 l-5 -50 47 0 c51 0
75 16 60 40 -5 8 -7 25 -4 37 5 18 0 25 -21 33 -34 13 -95 13 -95 0z m83 -25
c1 -5 -6 -11 -15 -13 -11 -2 -18 3 -18 13 0 17 30 18 33 0z m5 -52 c2 -8 -5
-13 -17 -13 -12 0 -21 6 -21 16 0 18 31 15 38 -3z"/>
<path d="M1996 1512 c-3 -6 -1 -14 5 -17 15 -10 25 3 12 16 -7 7 -13 7 -17 1z"/>
<path d="M3405 1465 c0 -42 4 -55 15 -56 8 0 34 -2 58 -5 40 -5 42 -4 42 21 0
27 -14 34 -24 10 -3 -8 -15 -15 -26 -15 -11 0 -20 7 -20 15 0 8 5 15 10 15 6
0 10 -5 10 -12 0 -8 3 -9 10 -2 7 7 7 20 2 34 -6 16 -11 19 -16 12 -4 -7 -12
-10 -17 -6 -5 3 -7 10 -4 15 10 15 43 10 53 -7 11 -20 25 -3 16 20 -5 12 -20
16 -58 16 l-51 0 0 -55z"/>
<path d="M1525 1416 c-10 -12 -45 -49 -78 -83 l-60 -61 84 -4 84 -3 80 77 c44
42 78 79 75 81 -3 3 -42 7 -87 9 -73 4 -83 3 -98 -16z"/>
</g>
</svg>
